<svg width="5" height="6" viewBox="0 0 5 6" fill="none" xmlns="http://www.w3.org/2000/svg">
<path fill-rule="evenodd" clip-rule="evenodd" d="M0.475114 0.974869C0.127655 1.32233 0.127655 1.88155 0.127655 3.00001C0.127655 4.11846 0.127655 4.67768 0.475114 5.02514C0.822572 5.3726 1.3818 5.3726 2.50025 5.3726C3.6187 5.3726 4.17793 5.3726 4.52539 5.02514C4.87285 4.67768 4.87285 4.11846 4.87285 3.00001C4.87285 1.88155 4.87285 1.32233 4.52539 0.974869C4.17793 0.627411 3.6187 0.627411 2.50025 0.627411C1.3818 0.627411 0.822572 0.627411 0.475114 0.974869ZM1.43978 2.39966C1.37029 2.33017 1.25762 2.33017 1.18813 2.39966C1.11864 2.46915 1.11864 2.58182 1.18813 2.65131L1.73214 3.19532C1.89428 3.35747 2.15718 3.35747 2.31932 3.19532L2.69557 2.81908C2.71873 2.79592 2.75629 2.79592 2.77945 2.81908L3.25695 3.29658H3.0934C2.99512 3.29658 2.91545 3.37625 2.91545 3.47453C2.91545 3.5728 2.99512 3.65247 3.0934 3.65247H3.68655C3.78482 3.65247 3.86449 3.5728 3.86449 3.47453V2.88138C3.86449 2.7831 3.78482 2.70343 3.68655 2.70343C3.58827 2.70343 3.5086 2.7831 3.5086 2.88138V3.04493L3.0311 2.56743C2.86896 2.40528 2.60606 2.40528 2.44392 2.56743L2.06767 2.94367C2.04451 2.96684 2.00695 2.96684 1.98379 2.94367L1.43978 2.39966Z" fill="#FF4D4D"/>
</svg>
