<svg width="147" height="29" viewBox="0 0 147 29" fill="none" xmlns="http://www.w3.org/2000/svg">
<path d="M12.3225 0.11104L0.685229 6.80469C0.555452 6.87849 0.44761 6.98522 0.372674 7.11403C0.297738 7.24283 0.258381 7.38911 0.258607 7.53799V20.9205C0.259795 21.067 0.299324 21.2108 0.373291 21.3375C0.447259 21.4642 0.553109 21.5695 0.680394 21.6429L12.308 28.3366C12.4384 28.4117 12.5863 28.4513 12.737 28.4513C12.8876 28.4513 13.0356 28.4117 13.166 28.3366L24.8008 21.6441C24.9268 21.5716 25.0314 21.4673 25.1041 21.3418C25.1769 21.2162 25.2152 21.0739 25.2154 20.9289V7.52836C25.2163 7.38209 25.1783 7.23819 25.1052 7.1113C25.0322 6.9844 24.9268 6.87903 24.7996 6.80589L13.1515 0.11104C13.0256 0.0383046 12.8826 0 12.737 0C12.5914 0 12.4484 0.0383046 12.3225 0.11104ZM11.4898 25.879C11.4905 25.9356 11.476 25.9914 11.4478 26.0405C11.4196 26.0896 11.3787 26.1303 11.3293 26.1584C11.28 26.1864 11.224 26.2007 11.1672 26.1999C11.1104 26.199 11.0548 26.183 11.0063 26.1535L10.2353 25.7104L9.18987 25.1084C9.12855 25.0731 9.07762 25.0224 9.0422 24.9613C9.00677 24.9002 8.98809 24.8309 8.98804 24.7604V16.6074C8.98809 16.5385 8.96991 16.4708 8.93532 16.4112C8.90073 16.3516 8.85096 16.3021 8.79104 16.2678L7.88946 15.75C7.87421 15.7414 7.85697 15.7369 7.83943 15.737C7.8219 15.7371 7.8047 15.7417 7.78954 15.7505C7.77437 15.7593 7.76179 15.7718 7.75302 15.787C7.74426 15.8021 7.73963 15.8193 7.7396 15.8367V19.9692V24.0825C7.73951 24.1023 7.7342 24.1218 7.72419 24.1389C7.71419 24.156 7.69984 24.1703 7.68258 24.1801C7.66533 24.19 7.64577 24.1952 7.62587 24.1952C7.60597 24.1951 7.58642 24.1899 7.56919 24.18L6.49236 23.5611L5.44575 22.959C5.38443 22.9238 5.3335 22.873 5.29807 22.812C5.26265 22.7509 5.24397 22.6816 5.24392 22.611V14.5941C5.24402 14.4828 5.21469 14.3735 5.15889 14.2771C5.10309 14.1807 5.02279 14.1006 4.92607 14.045L4.1683 13.6067C4.15155 13.5969 4.1325 13.5917 4.11308 13.5917C4.09367 13.5916 4.07458 13.5967 4.05777 13.6063C4.04095 13.616 4.027 13.6299 4.01733 13.6467C4.00766 13.6635 4.00262 13.6825 4.00273 13.7018V21.9151C4.00177 21.9353 3.99573 21.9549 3.98516 21.9721C3.9746 21.9893 3.95985 22.0037 3.94228 22.0137C3.9247 22.0238 3.90487 22.0293 3.88459 22.0298C3.86432 22.0302 3.84427 22.0255 3.82628 22.0162L2.75428 21.4009L1.70646 20.7989C1.6458 20.764 1.59542 20.7138 1.56042 20.6533C1.52541 20.5929 1.507 20.5243 1.50705 20.4545V9.42845C1.50626 9.40466 1.51203 9.38111 1.52375 9.36037C1.53546 9.33963 1.55266 9.32249 1.57348 9.31081C1.5943 9.29914 1.61793 9.29338 1.6418 9.29417C1.66568 9.29495 1.68888 9.30225 1.70888 9.31526L2.76033 9.91732L4.00756 10.6398L5.2548 11.3622L6.50324 12.0847L7.75047 12.8072L8.99771 13.5296L10.2449 14.2521L11.2565 14.8108C11.327 14.8513 11.3856 14.9095 11.4264 14.9797C11.4671 15.0499 11.4886 15.1295 11.4885 15.2106L11.4898 25.879ZM12.9219 12.6856C12.8656 12.7176 12.8018 12.7344 12.737 12.7344C12.6721 12.7344 12.6084 12.7176 12.5521 12.6856L11.4898 12.0727L10.2413 11.3502L11.4898 10.6277L12.737 9.90528L13.9854 9.18281L15.2327 8.46034L16.4811 7.73788L17.5688 7.11053C17.5849 7.10153 17.5983 7.08842 17.6076 7.07255C17.617 7.05668 17.6219 7.03862 17.6219 7.02023C17.6219 7.00183 17.617 6.98377 17.6076 6.9679C17.5983 6.95203 17.5849 6.93892 17.5688 6.92992L16.7119 6.43623C16.641 6.39544 16.5606 6.37396 16.4787 6.37396C16.3968 6.37396 16.3164 6.39544 16.2454 6.43623L15.2303 7.02023L13.983 7.74269L12.7346 8.46516L11.4873 9.18763L10.2389 9.91009L9.28534 10.476C9.19679 10.527 9.09634 10.5538 8.99408 10.5538C8.89183 10.5538 8.79137 10.527 8.70282 10.476L7.75168 9.92093L6.50445 9.19846L5.25721 8.476L4.00514 7.76798L2.92711 7.14786C2.91007 7.13786 2.89594 7.12361 2.88613 7.1065C2.87631 7.08939 2.87115 7.07003 2.87115 7.05033C2.87115 7.03063 2.87631 7.01126 2.88613 6.99416C2.89594 6.97705 2.91007 6.96279 2.92711 6.9528L4.00514 6.33268L5.24996 5.61503L6.4984 4.89256L7.75168 4.17852L8.99891 3.45606L10.2461 2.73359L11.4946 2.01113L12.4868 1.44038C12.5642 1.39542 12.6522 1.37174 12.7418 1.37174C12.8314 1.37174 12.9194 1.39542 12.9968 1.44038L13.9903 2.01113L15.2375 2.73359L13.9903 3.45606L12.7418 4.17852L11.4946 4.90099L10.2413 5.61382L8.99408 6.33629L7.91605 6.9552C7.90033 6.96634 7.88752 6.98105 7.87868 6.99812C7.86983 7.0152 7.86522 7.03413 7.86522 7.05334C7.86522 7.07255 7.86983 7.09148 7.87868 7.10855C7.88752 7.12563 7.90033 7.14034 7.91605 7.15147L8.83939 7.68128C8.88543 7.70735 8.93749 7.72106 8.99046 7.72106C9.04342 7.72106 9.09548 7.70735 9.14153 7.68128L10.2377 7.05033L11.4849 6.33388L12.7322 5.61744L13.9806 4.89497L15.2278 4.1725L16.1814 3.62343C16.2706 3.57195 16.3719 3.54484 16.4751 3.54484C16.5782 3.54484 16.6795 3.57195 16.7688 3.62343L17.7235 4.1725L18.9707 4.88895L20.218 5.6054L21.4652 6.32184L22.53 6.93473C22.5486 6.94524 22.564 6.96047 22.5748 6.97887C22.5856 6.99727 22.5912 7.01819 22.5912 7.03949C22.5912 7.06079 22.5856 7.08171 22.5748 7.10011C22.564 7.11852 22.5486 7.13375 22.53 7.14425L21.4652 7.75714L20.2168 8.47961L18.9695 9.20207L17.7211 9.92454L16.4739 10.647L15.2254 11.3695L13.9782 12.0919L12.9219 12.6856ZM23.9669 13.5092L22.7197 14.2316L21.4725 14.9541V13.6573C21.4723 13.6424 21.4683 13.6278 21.4607 13.615C21.4532 13.6022 21.4424 13.5915 21.4295 13.5841C21.4165 13.5767 21.4019 13.5728 21.387 13.5727C21.372 13.5727 21.3573 13.5765 21.3444 13.5838L20.224 14.228L18.9768 14.9505L17.7283 15.673L16.7107 16.2582C16.6409 16.2983 16.583 16.3561 16.5427 16.4256C16.5024 16.4951 16.4811 16.574 16.4811 16.6543V21.8452C16.4812 21.8744 16.489 21.9029 16.5037 21.9281C16.5184 21.9533 16.5394 21.9742 16.5648 21.9887C16.5901 22.0032 16.6188 22.0108 16.648 22.0108C16.6773 22.0108 16.706 22.0031 16.7313 21.9885L17.7283 21.4154L18.9768 20.6929L20.224 19.9704L21.2368 19.3876C21.3084 19.346 21.3679 19.2864 21.4092 19.2148C21.4506 19.1432 21.4724 19.0621 21.4725 18.9795V17.8211L23.9669 16.3762V20.4148C23.9671 20.4963 23.9456 20.5765 23.9047 20.6471C23.8637 20.7178 23.8047 20.7763 23.7337 20.8169L22.7197 21.4009L21.4725 22.1234L20.224 22.8459L18.9768 23.5683L17.7283 24.2908L15.2339 25.7261L14.4072 26.2005C14.3647 26.225 14.3164 26.2379 14.2673 26.2379C14.2182 26.238 14.1699 26.2252 14.1273 26.2008C14.0847 26.1764 14.0493 26.1413 14.0246 26.099C13.9999 26.0567 13.9868 26.0086 13.9866 25.9597V15.1793C13.9866 15.1083 14.0054 15.0385 14.041 14.977C14.0767 14.9155 14.1279 14.8644 14.1897 14.8289L15.2339 14.2268L16.4823 13.5044L17.7296 12.7819L18.978 12.0594L20.2252 11.337L21.4725 10.6145L23.8255 9.28757C23.8406 9.2792 23.8575 9.27488 23.8747 9.27503C23.892 9.27518 23.9088 9.27979 23.9237 9.28842C23.9386 9.29705 23.951 9.30939 23.9596 9.32423C23.9683 9.33908 23.9729 9.3559 23.973 9.37306L23.9669 13.5092Z" fill="url(#paint0_linear_154_3958)"/>
<path d="M40.4346 20.8972C39.5652 20.8972 38.7759 20.8057 38.0667 20.6226C37.369 20.4396 36.7399 20.1822 36.1794 19.8505C35.6303 19.5074 35.127 19.107 34.6695 18.6495L36.2652 16.5219C36.9858 17.2425 37.7064 17.7458 38.4271 18.0318C39.1591 18.3063 39.8855 18.4436 40.6061 18.4436C40.9379 18.4436 41.2581 18.4093 41.567 18.3406C41.8873 18.2606 42.1446 18.1347 42.3391 17.9631C42.5336 17.7916 42.6308 17.5685 42.6308 17.294C42.6308 17.111 42.5793 16.9565 42.4764 16.8307C42.3734 16.6935 42.2304 16.5791 42.0474 16.4876C41.8644 16.396 41.6471 16.316 41.3954 16.2473C41.1552 16.1787 40.8978 16.1215 40.6233 16.0758C40.3602 16.0186 40.08 15.9671 39.7826 15.9213C39.0619 15.807 38.4213 15.6468 37.8609 15.4409C37.3118 15.235 36.8485 14.9777 36.4711 14.6688C36.0936 14.36 35.8019 13.9996 35.596 13.5879C35.4015 13.1761 35.3043 12.7071 35.3043 12.1809C35.3043 11.6204 35.4359 11.1114 35.6989 10.6538C35.9735 10.1848 36.3452 9.79021 36.8142 9.46993C37.2832 9.13821 37.8265 8.88656 38.4442 8.71498C39.0619 8.53196 39.7139 8.44045 40.4002 8.44045C41.2238 8.44045 41.9387 8.52052 42.545 8.68066C43.1627 8.8408 43.7003 9.06957 44.1578 9.36698C44.6154 9.65295 44.9986 9.99039 45.3074 10.3793L43.6774 12.2324C43.3915 11.9464 43.0712 11.7062 42.7166 11.5117C42.362 11.3173 41.9845 11.1686 41.5841 11.0656C41.1952 10.9627 40.8006 10.9112 40.4002 10.9112C39.9999 10.9112 39.6453 10.957 39.3364 11.0485C39.0276 11.1285 38.7817 11.2486 38.5986 11.4088C38.4156 11.5689 38.3241 11.7691 38.3241 12.0093C38.3241 12.2152 38.3985 12.3925 38.5472 12.5412C38.6959 12.6785 38.8903 12.7986 39.1305 12.9015C39.3822 13.0045 39.6624 13.0903 39.9713 13.1589C40.2801 13.2161 40.589 13.2676 40.8978 13.3133C41.5498 13.4163 42.1618 13.5535 42.7337 13.7251C43.3057 13.8853 43.809 14.1026 44.2436 14.3771C44.6783 14.6402 45.0157 14.9834 45.256 15.4066C45.5076 15.8184 45.6334 16.3331 45.6334 16.9508C45.6334 17.7858 45.4047 18.5008 44.9471 19.0956C44.501 19.6789 43.889 20.1251 43.1112 20.4339C42.3334 20.7427 41.4412 20.8972 40.4346 20.8972ZM47.1054 20.7256V8.71498H49.7134L54.5177 15.6983L52.7332 15.6811L57.589 8.71498H60.1283V20.7256H57.2973V16.9165C57.2973 15.9213 57.3201 15.012 57.3659 14.1884C57.4231 13.3534 57.5146 12.5183 57.6404 11.6833L57.9493 12.6098L54.1573 17.8087H53.0249L49.2673 12.6098L49.5933 11.6833C49.7191 12.4955 49.8049 13.3133 49.8507 14.1369C49.9079 14.9491 49.9365 15.8756 49.9365 16.9165V20.7256H47.1054ZM68.4145 20.8972C67.465 20.8972 66.5785 20.7485 65.755 20.4511C64.9428 20.1422 64.2279 19.7133 63.6102 19.1642C63.004 18.6151 62.535 17.9631 62.2032 17.2082C61.8715 16.4418 61.7057 15.5953 61.7057 14.6688C61.7057 13.7652 61.8772 12.9358 62.2204 12.1809C62.575 11.4259 63.0554 10.7739 63.6617 10.2249C64.2679 9.67582 64.9828 9.24687 65.8064 8.93803C66.63 8.62919 67.5165 8.47476 68.4659 8.47476C69.1179 8.47476 69.7471 8.55483 70.3533 8.71498C70.971 8.87512 71.5429 9.09817 72.0691 9.38414C72.5953 9.6701 73.0414 9.99611 73.4074 10.3621L71.6745 12.5241C71.3999 12.261 71.1025 12.0322 70.7823 11.8377C70.462 11.6318 70.1017 11.4717 69.7013 11.3573C69.3009 11.2315 68.8606 11.1686 68.3801 11.1686C67.9111 11.1686 67.4536 11.2486 67.0075 11.4088C66.5614 11.5689 66.1668 11.8034 65.8236 12.1123C65.4804 12.4097 65.2059 12.7814 65 13.2275C64.8055 13.6622 64.7083 14.1541 64.7083 14.7031C64.7083 15.2522 64.8113 15.744 65.0172 16.1787C65.2231 16.6134 65.5033 16.9851 65.8579 17.294C66.2239 17.5914 66.6472 17.8202 67.1276 17.9803C67.608 18.1404 68.1285 18.2205 68.689 18.2205C69.1808 18.2205 69.627 18.1519 70.0273 18.0146C70.4277 17.8774 70.788 17.7115 71.1083 17.517C71.4285 17.3111 71.7145 17.0938 71.9662 16.865L73.356 19.1127C73.0471 19.4101 72.6353 19.6961 72.1206 19.9706C71.6058 20.2452 71.0282 20.4682 70.3876 20.6398C69.7471 20.8114 69.0893 20.8972 68.4145 20.8972ZM79.8035 20.7256V8.71498H85.8259C86.6724 8.71498 87.4159 8.88084 88.0565 9.21256C88.6971 9.53284 89.1946 9.97895 89.5492 10.5509C89.9038 11.1228 90.0811 11.7863 90.0811 12.5412C90.0811 13.3076 89.8924 13.9939 89.5149 14.6002C89.1489 15.195 88.6399 15.6697 87.9879 16.0243C87.3473 16.3674 86.6267 16.539 85.8259 16.539H82.5831V20.7256H79.8035ZM87.3187 20.7256L83.8528 15.3037L86.8726 14.8747L90.6817 20.7256H87.3187ZM82.5831 14.3085H85.5343C85.8545 14.3085 86.1348 14.2399 86.375 14.1026C86.6267 13.9653 86.8211 13.7766 86.9584 13.5364C87.1071 13.2962 87.1814 13.0159 87.1814 12.6956C87.1814 12.3868 87.1014 12.118 86.9412 11.8892C86.7925 11.649 86.5809 11.466 86.3064 11.3402C86.0433 11.2143 85.7287 11.1514 85.3627 11.1514H82.5831V14.3085ZM96.4398 20.8972C95.3302 20.8972 94.3579 20.697 93.5229 20.2966C92.6993 19.8848 92.0588 19.3301 91.6012 18.6323C91.1437 17.9231 90.9149 17.1167 90.9149 16.213C90.9149 15.4924 91.0465 14.8404 91.3095 14.257C91.5726 13.6736 91.9387 13.1703 92.4077 12.7471C92.8766 12.3239 93.4257 11.9979 94.0548 11.7691C94.684 11.5403 95.3646 11.4259 96.0966 11.4259C96.8058 11.4259 97.4578 11.5403 98.0526 11.7691C98.6475 11.9864 99.1622 12.301 99.5969 12.7128C100.043 13.1246 100.386 13.6107 100.626 14.1712C100.867 14.7317 100.975 15.3494 100.952 16.0243L100.935 16.7964H92.7165L92.3219 15.2007H98.7046L98.413 15.5439V15.2007C98.3786 14.9147 98.2528 14.6574 98.0355 14.4286C97.8296 14.1998 97.5608 14.0225 97.2291 13.8967C96.8973 13.7594 96.5313 13.6908 96.1309 13.6908C95.6162 13.6908 95.1587 13.7766 94.7583 13.9482C94.3579 14.1083 94.0434 14.36 93.8146 14.7031C93.5973 15.0463 93.4886 15.481 93.4886 16.0071C93.4886 16.5104 93.6202 16.9508 93.8832 17.3283C94.1578 17.7058 94.541 18.0032 95.0328 18.2205C95.5361 18.4379 96.1252 18.5465 96.8001 18.5465C97.3835 18.5465 97.8696 18.4779 98.2585 18.3406C98.6589 18.1919 99.0192 18.0089 99.3395 17.7916L100.575 19.576C100.197 19.862 99.7799 20.1079 99.3223 20.3138C98.8762 20.5083 98.4072 20.6512 97.9154 20.7427C97.435 20.8457 96.9431 20.8972 96.4398 20.8972ZM102.559 24.5003V11.6147H105.167L105.27 13.6565L104.755 13.5021C104.835 13.136 105.053 12.7986 105.407 12.4897C105.762 12.1809 106.208 11.9292 106.745 11.7348C107.295 11.5403 107.878 11.4431 108.496 11.4431C109.388 11.4431 110.171 11.649 110.846 12.0608C111.521 12.4611 112.047 13.0159 112.425 13.7251C112.814 14.4229 113.008 15.235 113.008 16.1616C113.008 17.0766 112.814 17.8888 112.425 18.598C112.047 19.3072 111.515 19.8677 110.829 20.2795C110.143 20.6798 109.353 20.88 108.461 20.88C107.844 20.88 107.266 20.7771 106.728 20.5712C106.191 20.3653 105.739 20.0965 105.373 19.7647C105.018 19.433 104.789 19.0841 104.686 18.7181L105.321 18.4779V24.5003H102.559ZM107.792 18.5637C108.307 18.5637 108.753 18.4664 109.13 18.272C109.508 18.0661 109.8 17.7858 110.005 17.4312C110.223 17.0766 110.331 16.6534 110.331 16.1616C110.331 15.6811 110.223 15.2636 110.005 14.909C109.8 14.543 109.508 14.2627 109.13 14.0683C108.764 13.8624 108.318 13.7594 107.792 13.7594C107.277 13.7594 106.826 13.8567 106.437 14.0511C106.059 14.2456 105.762 14.5258 105.544 14.8919C105.338 15.2579 105.236 15.6811 105.236 16.1616C105.236 16.6534 105.338 17.0766 105.544 17.4312C105.762 17.7858 106.059 18.0661 106.437 18.272C106.826 18.4664 107.277 18.5637 107.792 18.5637ZM119.178 20.8972C118.115 20.8972 117.171 20.6913 116.347 20.2795C115.524 19.8677 114.878 19.3072 114.409 18.598C113.94 17.8888 113.705 17.0766 113.705 16.1616C113.705 15.2465 113.94 14.4343 114.409 13.7251C114.878 13.0159 115.524 12.4554 116.347 12.0436C117.171 11.6318 118.115 11.4259 119.178 11.4259C120.231 11.4259 121.163 11.6318 121.975 12.0436C122.799 12.4554 123.445 13.0159 123.914 13.7251C124.383 14.4343 124.618 15.2465 124.618 16.1616C124.618 17.0766 124.383 17.8888 123.914 18.598C123.445 19.3072 122.799 19.8677 121.975 20.2795C121.163 20.6913 120.231 20.8972 119.178 20.8972ZM119.178 18.5294C119.67 18.5294 120.116 18.4264 120.517 18.2205C120.929 18.0146 121.249 17.7344 121.478 17.3798C121.718 17.0252 121.832 16.6191 121.821 16.1616C121.832 15.704 121.718 15.2922 121.478 14.9262C121.249 14.5601 120.929 14.2799 120.517 14.0854C120.116 13.8795 119.67 13.7766 119.178 13.7766C118.675 13.7766 118.212 13.8795 117.789 14.0854C117.377 14.2913 117.057 14.5716 116.828 14.9262C116.599 15.2808 116.485 15.6926 116.485 16.1616C116.485 16.6191 116.599 17.0252 116.828 17.3798C117.057 17.7344 117.377 18.0146 117.789 18.2205C118.212 18.4264 118.675 18.5294 119.178 18.5294ZM126.218 20.7256V11.6147H128.826L128.946 14.7546L128.294 14.4286C128.442 13.8681 128.7 13.3648 129.066 12.9187C129.443 12.4611 129.872 12.1008 130.353 11.8377C130.844 11.5632 131.365 11.4259 131.914 11.4259C132.211 11.4259 132.492 11.4545 132.755 11.5117C133.029 11.5689 133.264 11.6433 133.458 11.7348L132.703 14.7374C132.532 14.6116 132.297 14.5144 132 14.4458C131.714 14.3771 131.422 14.3428 131.125 14.3428C130.793 14.3428 130.49 14.4 130.215 14.5144C129.952 14.6173 129.729 14.766 129.546 14.9605C129.363 15.1435 129.22 15.3551 129.117 15.5953C129.026 15.8356 128.98 16.0929 128.98 16.3675V20.7256H126.218ZM135.965 20.7256V9.10961H138.71V20.7256H135.965ZM133.94 14.0168V11.6147H141.027V14.0168H133.94Z" fill="black"/>
<defs>
<linearGradient id="paint0_linear_154_3958" x1="12.737" y1="0" x2="12.737" y2="28.4513" gradientUnits="userSpaceOnUse">
<stop stop-color="#00F4B8"/>
<stop offset="1" stop-color="#0052FD"/>
</linearGradient>
</defs>
</svg>
