<svg width="22" height="22" viewBox="0 0 22 22" fill="none" xmlns="http://www.w3.org/2000/svg">
    <path fill-rule="evenodd" clip-rule="evenodd"
        d="M10.75 0.25C11.1642 0.25 11.5 0.585786 11.5 1V2C11.5 2.41421 11.1642 2.75 10.75 2.75C10.3358 2.75 10 2.41421 10 2V1C10 0.585786 10.3358 0.25 10.75 0.25ZM3.14861 3.39861C3.4415 3.10572 3.91638 3.10572 4.20927 3.39861L4.60211 3.79145C4.895 4.08434 4.895 4.55921 4.60211 4.85211C4.30921 5.145 3.83434 5.145 3.54145 4.85211L3.14861 4.45927C2.85572 4.16638 2.85572 3.6915 3.14861 3.39861ZM18.3511 3.39887C18.644 3.69176 18.644 4.16664 18.3511 4.45953L17.9583 4.85237C17.6654 5.14526 17.1905 5.14526 16.8976 4.85237C16.6047 4.55947 16.6047 4.0846 16.8976 3.79171L17.2905 3.39887C17.5834 3.10598 18.0582 3.10598 18.3511 3.39887ZM10.75 5.75C7.8505 5.75 5.5 8.1005 5.5 11C5.5 13.8995 7.8505 16.25 10.75 16.25C13.6495 16.25 16 13.8995 16 11C16 8.1005 13.6495 5.75 10.75 5.75ZM4 11C4 7.27208 7.02208 4.25 10.75 4.25C14.4779 4.25 17.5 7.27208 17.5 11C17.5 14.7279 14.4779 17.75 10.75 17.75C7.02208 17.75 4 14.7279 4 11ZM0 11C0 10.5858 0.335786 10.25 0.75 10.25H1.75C2.16421 10.25 2.5 10.5858 2.5 11C2.5 11.4142 2.16421 11.75 1.75 11.75H0.75C0.335786 11.75 0 11.4142 0 11ZM19 11C19 10.5858 19.3358 10.25 19.75 10.25H20.75C21.1642 10.25 21.5 10.5858 21.5 11C21.5 11.4142 21.1642 11.75 20.75 11.75H19.75C19.3358 11.75 19 11.4142 19 11ZM16.8976 17.1476C17.1905 16.8547 17.6654 16.8547 17.9583 17.1476L18.3511 17.5405C18.644 17.8334 18.644 18.3082 18.3511 18.6011C18.0582 18.894 17.5834 18.894 17.2905 18.6011L16.8976 18.2083C16.6047 17.9154 16.6047 17.4405 16.8976 17.1476ZM4.60211 17.1479C4.895 17.4408 4.895 17.9157 4.60211 18.2086L4.20927 18.6014C3.91638 18.8943 3.4415 18.8943 3.14861 18.6014C2.85572 18.3085 2.85572 17.8336 3.14861 17.5407L3.54145 17.1479C3.83434 16.855 4.30921 16.855 4.60211 17.1479ZM10.75 19.25C11.1642 19.25 11.5 19.5858 11.5 20V21C11.5 21.4142 11.1642 21.75 10.75 21.75C10.3358 21.75 10 21.4142 10 21V20C10 19.5858 10.3358 19.25 10.75 19.25Z"
        fill="currentColor" />
</svg>