<svg width="20" height="20" viewBox="0 0 20 20" fill="none" xmlns="http://www.w3.org/2000/svg">
    <path fill-rule="evenodd" clip-rule="evenodd"
        d="M15.8194 17.7006C15.7302 16.6064 16.6357 15.6929 17.7205 15.783C17.9086 15.7986 18.1337 15.8671 18.363 15.9368C18.3851 15.9435 18.4073 15.9502 18.4294 15.9569C18.4494 15.9629 18.4694 15.9689 18.4894 15.975C18.7001 16.0383 18.9097 16.1013 19.0692 16.1874C19.9844 16.6818 20.2799 17.8631 19.7067 18.7363C19.6068 18.8884 19.4519 19.0441 19.2962 19.2007C19.2814 19.2156 19.2666 19.2305 19.2519 19.2454C19.2371 19.2602 19.2224 19.2752 19.2076 19.2901C19.0524 19.4471 18.898 19.6034 18.7472 19.7041C17.8816 20.2823 16.7105 19.9843 16.2204 19.0611C16.135 18.9002 16.0725 18.6888 16.0097 18.4762C16.0038 18.4561 15.9978 18.4359 15.9918 18.4157C15.9852 18.3934 15.9785 18.3711 15.9719 18.3488C15.9028 18.1175 15.8349 17.8903 15.8194 17.7006Z"
        fill="#1C274C" />
    <path
        d="M18.1278 9.1429C18.1278 14.1924 14.0697 18.2858 9.06388 18.2858C4.05804 18.2858 0 14.1924 0 9.1429C0 4.09342 4.05804 0 9.06388 0C14.0697 0 18.1278 4.09342 18.1278 9.1429Z"
        fill="#1C274C" />
</svg>