<svg width="15" height="16" viewBox="0 0 15 16" fill="none" xmlns="http://www.w3.org/2000/svg">
    <path fill-rule="evenodd" clip-rule="evenodd"
        d="M6.875 2.21875C4.02728 2.21875 1.71875 4.52728 1.71875 7.375C1.71875 10.2227 4.02728 12.5312 6.875 12.5312C9.72272 12.5312 12.0312 10.2227 12.0312 7.375C12.0312 4.52728 9.72272 2.21875 6.875 2.21875ZM0.78125 7.375C0.78125 4.00951 3.50951 1.28125 6.875 1.28125C10.2405 1.28125 12.9688 4.00951 12.9688 7.375C12.9688 10.7405 10.2405 13.4688 6.875 13.4688C3.50951 13.4688 0.78125 10.7405 0.78125 7.375ZM12.5987 12.8445C12.454 12.8335 12.3335 12.954 12.3445 13.0987C12.3446 13.0995 12.347 13.1155 12.3591 13.1608C12.3734 13.214 12.3945 13.2847 12.4267 13.3923C12.4563 13.4911 12.4755 13.555 12.4914 13.6026C12.5075 13.6512 12.5131 13.6605 12.5107 13.656C12.5766 13.779 12.734 13.8188 12.8504 13.7417C12.8461 13.7445 12.8555 13.739 12.8928 13.7038C12.9292 13.6695 12.9765 13.6223 13.0494 13.5494C13.1223 13.4765 13.1695 13.4292 13.2038 13.3928C13.233 13.3619 13.2418 13.3501 13.2423 13.3495C13.3183 13.2335 13.2789 13.0773 13.157 13.0112C13.1562 13.0109 13.1429 13.0048 13.1026 12.9914C13.055 12.9755 12.9911 12.9563 12.8923 12.9267C12.7847 12.8945 12.714 12.8734 12.6608 12.8591C12.6155 12.847 12.5995 12.8446 12.5987 12.8445ZM11.4102 13.1771C11.3507 12.4542 11.9542 11.8507 12.6771 11.9102C12.802 11.9205 12.9532 11.966 13.1164 12.0151C13.1313 12.0196 13.1463 12.0242 13.1614 12.0287C13.175 12.0328 13.1886 12.0368 13.2021 12.0408C13.352 12.0856 13.4926 12.1275 13.5985 12.1842C14.2084 12.5108 14.4053 13.2912 14.0233 13.868C13.957 13.9682 13.8531 14.0718 13.7424 14.1823C13.7324 14.1923 13.7224 14.2023 13.7123 14.2123C13.7023 14.2224 13.6922 14.2324 13.6823 14.2424C13.5718 14.3531 13.4682 14.457 13.368 14.5233C12.7912 14.9053 12.0108 14.7084 11.6842 14.0985C11.6275 13.9926 11.5856 13.852 11.5408 13.7021C11.5368 13.6886 11.5328 13.675 11.5287 13.6614C11.5242 13.6463 11.5196 13.6313 11.5152 13.6164C11.466 13.4532 11.4205 13.302 11.4102 13.1771Z"
        fill="currentColor" />
</svg>