<svg width="6" height="6" viewBox="0 0 6 6" fill="none" xmlns="http://www.w3.org/2000/svg">
<path fill-rule="evenodd" clip-rule="evenodd" d="M0.571639 0.571639C0.154999 0.98828 0.154999 1.65885 0.154999 3C0.154999 4.34114 0.154999 5.01172 0.571639 5.42836C0.98828 5.845 1.65885 5.845 3 5.845C4.34114 5.845 5.01172 5.845 5.42836 5.42836C5.845 5.01172 5.845 4.34114 5.845 3C5.845 1.65885 5.845 0.98828 5.42836 0.571639C5.01172 0.154999 4.34114 0.154999 3 0.154999C1.65885 0.154999 0.98828 0.154999 0.571639 0.571639ZM3.49787 2.431C3.49787 2.54884 3.59341 2.64437 3.71125 2.64437H3.90737L3.33479 3.21695C3.30702 3.24472 3.26198 3.24472 3.23421 3.21695L2.78305 2.76579C2.58862 2.57136 2.27338 2.57136 2.07895 2.76579L1.42662 3.41812C1.34329 3.50145 1.34329 3.63655 1.42662 3.71988C1.50995 3.80321 1.64505 3.80321 1.72838 3.71988L2.38071 3.06755C2.40848 3.03977 2.45352 3.03977 2.48129 3.06755L2.93245 3.51871C3.12688 3.71314 3.44212 3.71314 3.63655 3.51871L4.20912 2.94613V3.14225C4.20912 3.26009 4.30466 3.35562 4.4225 3.35562C4.54034 3.35562 4.63587 3.26009 4.63587 3.14225V2.431C4.63587 2.31315 4.54034 2.21762 4.4225 2.21762H3.71125C3.59341 2.21762 3.49787 2.31315 3.49787 2.431Z" fill="#4CAF5B"/>
</svg>
